# xmcd
#
# Track frame offsets:
#	150
#	14452
#	27488
#	42190
#	53993
#	68562
#	85935
#	107849
#	120844
#	137715
#	150708
#	164102
#	181634
#	193142
#	209497
#	223596
#	238044
#	250672
#	264160
#
# Disc length: 3752 seconds
#
# Revision: 1
# Processed by: cddbd v1.5.2PL0 Copyright (c) Steve Scherf et al.
# Submitted via: audiograbber 1.83.01
#
DISCID=080ea613
DTITLE=Glenn Keener - In The Beginning Vol 1
DYEAR=1999
DGENRE=Country
TTITLE0=Cafe Mozart Waltz
TTITLE1=Caravan
TTITLE2=Blue Spanies Eyes
TTITLE3=The Lonely Bull
TTITLE4=Yesterday
TTITLE5=Big Boss Man
TTITLE6=Stranger On The Shore
TTITLE7=Margaritaville
TTITLE8=For The Good Times
TTITLE9=Tree Top Waltz
TTITLE10=Beer Barrel Polka
TTITLE11=Let Et Be Me
TTITLE12=Mexico
TTITLE13=Maria Elena
TTITLE14=Forty Miles Of A Bad Road
TTITLE15=Apache
TTITLE16=Windy Anf Warm
TTITLE17=Raunchy
TTITLE18=Nashville Jam
EXTD=
EXTT0=
EXTT1=
EXTT2=
EXTT3=
EXTT4=
EXTT5=
EXTT6=
EXTT7=
EXTT8=
EXTT9=
EXTT10=
EXTT11=
EXTT12=
EXTT13=
EXTT14=
EXTT15=
EXTT16=
EXTT17=
EXTT18=
PLAYORDER=
